PathFileType	4	(X/Y/Z)	C:\Git\1_current_projects\powerlifing_model\simulations\Athlete_03\25_03_31\Walking_01\markers_experimental.trc
DataRate	CameraRate	NumFrames	NumMarkers	Units	OrigDataRate	OrigDataStartFrame	OrigNumFrames
200.000000	200.000000	4	53	mm	200.000000	29	239
Frame#	Time	GLAB			RFHD			LFHD			C7			T6			SPINMOL			SPINM2			SPINM3			T12			BELTOL			BELT2			BELT3			SACROL			SACR2			SACR3			LTHOL			LTH2			LTH3			LSHAOL			LSHA2			LSHA3			LHEE			LTOE			LM5			RTHOL			RTH2			RTH3			RSHAOL			RSHA2			RSHA3			RHEE			RTOE			RM5			STRN			XIPH			LACR			LUAOL			LUA2			LUA3			LLAOL			LLA2			LLA3			LWRR			LWRU			RACR			RUAOL			RUA2			RUA3			RLAOL			RLA2			RLA3			RWRR			RWRU			
		X1	Y1	Z1	X2	Y2	Z2	X3	Y3	Z3	X4	Y4	Z4	X5	Y5	Z5	X6	Y6	Z6	X7	Y7	Z7	X8	Y8	Z8	X9	Y9	Z9	X10	Y10	Z10	X11	Y11	Z11	X12	Y12	Z12	X13	Y13	Z13	X14	Y14	Z14	X15	Y15	Z15	X16	Y16	Z16	X17	Y17	Z17	X18	Y18	Z18	X19	Y19	Z19	X20	Y20	Z20	X21	Y21	Z21	X22	Y22	Z22	X23	Y23	Z23	X24	Y24	Z24	X25	Y25	Z25	X26	Y26	Z26	X27	Y27	Z27	X28	Y28	Z28	X29	Y29	Z29	X30	Y30	Z30	X31	Y31	Z31	X32	Y32	Z32	X33	Y33	Z33	X34	Y34	Z34	X35	Y35	Z35	X36	Y36	Z36	X37	Y37	Z37	X38	Y38	Z38	X39	Y39	Z39	X40	Y40	Z40	X41	Y41	Z41	X42	Y42	Z42	X43	Y43	Z43	X44	Y44	Z44	X45	Y45	Z45	X46	Y46	Z46	X47	Y47	Z47	X48	Y48	Z48	X49	Y49	Z49	X50	Y50	Z50	X51	Y51	Z51	X52	Y52	Z52	X53	Y53	Z53	

30	0.145	247.2001037597657	1580.9765625	306.1434326171876	312.7426147460938	1603.904296875	356.1017456054688	175.4451141357422	1602.512817382813	352.7420959472657	239.6229705810547	1415.588989257813	528.5256347656251	228.2135772705079	1248.807495117188	588.9389648437501	204.835433959961	1209.089721679688	597.5469360351564	254.2331237792969	1200.189208984375	603.3556518554689	218.9299011230469	1144.515380859375	593.6928100585939	220.2256927490235	1078.070434570313	568.9388427734376	205.2901153564454	1043.707641601563	601.3025512695314	255.6915435791016	1040.921264648438	600.3732299804689	226.0116577148438	981.3438720703127	606.5243530273439	208.9148864746094	933.0071411132815	595.5986328125001	259.6472473144532	929.9033813476565	588.0646362304689	232.9598846435547	871.5410766601565	604.7050781250001	35.75202178955079	669.3977050781251	564.2310180664064	78.23561859130861	624.6213378906251	615.1456909179689	49.62487030029298	611.2626953125001	577.1118164062501	36.86891174316407	374.3228149414063	709.5209350585939	58.77515792846681	357.5884399414063	784.0800781250002	49.67888641357423	325.7586669921876	745.1687011718751	149.2677764892578	236.1834869384766	896.7630004882815	152.4805603027344	45.83781051635743	818.1004028320315	53.114315032959	60.58449172973634	854.809997558594	411.3963012695314	658.7556152343751	420.0189819335939	418.1334838867189	631.1325683593751	345.7560729980469	403.1699218750001	607.9295654296876	387.822235107422	406.439666748047	327.9896850585938	325.5174865722657	401.8318481445314	264.9069519042969	279.0905456542969	393.0744018554689	267.5649414062501	327.6260986328126	287.7605285644532	53.3447952270508	326.8652648925782	290.4403686523438	56.66745376586915	115.2113952636719	391.6151733398439	36.37420654296876	162.4432220458985	239.7523651123047	1312.11328125	357.8793640136719	232.8213500976563	1169.161010742188	341.3926391601563	66.80596160888673	1382.889404296875	447.1661376953126	-40.33503723144532	1237.07958984375	432.7866516113282	-63.83959579467775	1175.669311523438	436.2640991210939	-39.57196044921876	1184.9755859375	392.8917236328126	-95.25981903076173	991.1655273437502	339.4941101074219	-80.28799438476564	913.5914306640627	343.3096313476563	-91.14348602294923	941.9177856445315	303.2738342285157	-84.4536819458008	864.0395507812502	234.3253021240235	-16.3036003112793	891.223571777344	205.1872253417969	409.3277893066407	1359.065185546875	447.8037109375001	499.6389770507814	1208.26708984375	486.0340270996095	508.3234252929689	1144.66552734375	470.7139282226564	515.6409301757814	1154.220581054688	520.8658447265626	546.2540283203126	934.2332153320315	515.8060913085939	581.8989257812501	877.483337402344	473.3368225097657	551.2253417968751	871.2966918945315	511.6920776367189	571.8040161132814	786.9158935546877	486.4539489746095	507.3229064941407	767.2568359375001	440.4649658203126	
31	0.15	248.3991394042969	1581.897216796875	299.0921325683594	313.9551696777344	1604.811279296875	349.0152893066407	176.6579132080078	1603.418212890625	345.6921691894532	240.8542480468751	1416.421020507813	521.4892578125001	229.2397613525391	1249.5908203125	581.8051147460939	205.8143920898438	1209.892333984375	590.3786621093751	255.2107543945313	1200.957153320313	596.1677856445314	219.8651275634766	1145.3076171875	586.5088500976564	221.1839141845704	1078.904418945313	561.8114624023439	205.728012084961	1044.701171875	594.0547485351564	256.1431884765626	1042.008422851563	593.3096313476564	226.5496520996094	982.3756103515627	599.3593139648439	209.5388336181641	933.2966918945315	588.2485351562501	260.3247070312501	930.514587402344	580.8853149414064	233.8784942626954	871.904968261719	597.1215820312501	36.26836395263673	668.3895263671876	554.1076049804689	78.77272796630861	622.6616210937501	604.1583251953126	49.64023208618165	610.0534667968751	566.2862548828126	36.0897560119629	375.8827209472657	697.9641723632814	58.7429885864258	360.2709045410157	772.574645996094	49.10435485839845	327.8654785156251	734.2828369140626	149.529052734375	242.0312652587891	885.4150390625002	152.3284759521485	47.83224868774415	814.2730712890627	53.72991943359376	64.74533081054689	851.5056762695315	412.8369445800782	659.8070068359376	412.7284240722657	418.8244018554689	631.8932495117189	338.6420593261719	404.4227294921876	608.8515014648439	380.8139953613282	407.0792236328126	328.4680786132813	321.0706481933594	401.8054199218751	264.8608398437501	275.3257751464844	393.6215209960939	268.0482482910157	324.0184936523438	287.5739135742188	53.7971534729004	326.4976501464844	290.0670776367188	55.1531219482422	114.3539123535157	391.4627990722657	36.36557769775391	162.3095245361328	240.9282379150391	1313.149536132813	350.7897949218751	234.0142059326172	1170.11767578125	334.3341369628907	68.0670852661133	1383.952270507813	439.977264404297	-39.0254135131836	1238.094604492188	425.8074340820314	-62.70600891113283	1176.74560546875	429.5090942382814	-38.13373184204102	1185.696044921875	386.1852111816407	-94.14965057373048	991.3128051757815	334.7084655761719	-79.28939819335939	913.7879638671877	339.3840026855469	-90.33655548095705	941.6071777343752	299.0690612792969	-84.24024963378908	862.8665161132815	231.0458068847657	-16.16765213012696	889.4196777343752	201.2202758789063	410.4598083496095	1359.99365234375	440.5122985839845	500.8339233398439	1208.948486328125	477.894989013672	509.1578979492189	1145.361450195313	462.2079162597657	516.9407348632814	1154.708251953125	512.3347167968751	546.9378051757814	934.6809692382815	506.3601379394532	582.2353515625001	878.049743652344	463.4114074707032	551.7671508789064	871.7568969726565	501.9231567382814	572.0222167968751	787.439392089844	476.1428833007814	507.2593078613282	768.1571044921877	430.4417724609376	
32	0.155	249.5614471435547	1582.82763671875	292.0672302246094	315.1286010742188	1605.728515625	341.9623107910157	177.8299560546875	1604.344970703125	338.6607055664063	242.0192108154297	1417.284301757813	514.4946899414064	230.2616271972657	1250.40380859375	574.7177124023439	206.8067169189454	1210.715209960938	583.2615966796876	256.2051696777344	1201.761840820313	589.0203247070314	220.834213256836	1146.125244140625	579.3699340820314	222.1964111328126	1079.757080078125	554.7209472656251	206.2324676513672	1045.682739257813	586.8828735351564	256.6596069335938	1043.077392578125	586.3018798828126	227.1480255126954	983.392272949219	592.2570190429689	210.2550048828126	933.634460449219	580.9536132812501	261.0876770019532	931.160827636719	573.7365112304689	234.8890686035157	872.3275146484377	589.6422119140626	36.72920227050782	667.4042358398439	543.8882446289064	79.21121215820314	620.7100830078126	593.0650024414064	49.5928077697754	608.8713378906251	555.3415527343751	35.28938293457032	377.4583129882813	686.0899047851564	58.65782546997072	362.9681091308594	760.7359619140626	48.51012802124025	329.9968566894532	723.0708618164064	149.8174133300782	247.842514038086	873.707946777344	152.0888366699219	50.01872634887697	809.9367675781252	54.35592651367189	69.19666290283205	847.7498779296877	414.2175598144532	660.7752685546876	405.5722656250001	419.4455566406251	632.4642944335939	331.7155456542969	405.5886230468751	609.6582641601564	373.9893493652344	407.5423278808595	328.8516845703126	316.9381713867188	401.7476806640626	264.7418823242188	271.8484497070313	393.9818115234376	268.4507751464844	320.6611022949219	287.3424682617188	54.21422958374025	326.1484375000001	289.7299499511719	53.78190231323244	113.5591049194336	391.299530029297	36.4260482788086	162.196044921875	242.0425109863282	1314.199340820313	343.7434387207032	235.1481933593751	1171.0869140625	327.3331909179688	69.27178955078126	1385.024536132813	432.8493041992189	-37.76742172241212	1239.109497070313	418.904266357422	-61.61450576782228	1177.819580078125	422.8276367187501	-36.74553298950196	1186.423217773438	379.5610961914063	-93.05134582519533	991.4736328125002	329.9889831542969	-78.2887649536133	914.010437011719	335.5301513671876	-89.53961181640626	941.312438964844	294.9427795410157	-84.03307342529298	861.714538574219	227.8708038330079	-16.05220794677735	887.6299438476565	197.3511352539063	411.5320739746095	1360.97314453125	433.261688232422	502.014129638672	1209.699951171875	469.7678833007814	509.9768981933595	1146.135009765625	453.7009582519532	518.2341918945314	1155.257202148438	503.7927551269532	547.6454467773439	935.1979980468752	496.8488159179689	582.5761718750001	878.708190917969	453.3860778808595	552.3331909179689	872.2932739257815	492.0674743652345	572.2531738281251	788.0552978515627	465.7015991210939	507.192108154297	769.151794433594	420.3054504394532	
33	0.16	250.6856079101563	1583.765258789063	285.0690002441407	316.2612609863282	1606.653686523438	334.9425964355469	178.959701538086	1605.290283203125	331.6484069824219	243.1203613281251	1418.176513671875	507.5380859375001	231.2823028564454	1251.244995117188	567.6771240234376	207.8155975341797	1211.557006835938	576.1961059570314	257.2195129394532	1202.601684570313	581.9141845703126	221.8400115966797	1146.966674804688	572.2772216796876	223.2627716064454	1080.626586914063	547.6673583984376	206.814682006836	1046.640502929688	579.7825317382814	257.2519531250001	1044.115112304688	579.3430786132814	227.8165588378907	984.3811645507815	585.2104492187501	211.0712585449219	934.016784667969	573.7136840820314	261.9436340332032	931.8381958007815	566.6156005859376	235.9990997314454	872.8041992187502	582.2645263671876	37.1355094909668	666.4655151367189	533.5881958007814	79.55482482910158	618.7989501953126	581.8851928710939	49.49367523193361	607.7414550781251	544.2937622070314	34.47729492187501	379.0495910644532	673.9213256835939	58.52823638916017	365.6731262207032	748.5880126953126	47.90288925170899	332.1486206054688	711.5518798828126	150.138671875	253.5845336914063	861.6779785156252	151.7603149414063	52.38325119018556	805.0627441406252	54.97982406616212	73.89931488037111	843.4910278320315	415.5122985839845	661.6597900390626	398.5840148925782	419.9903259277345	632.8478393554689	325.0108032226563	406.6506347656251	610.3521728515626	367.3809814453126	407.8483886718751	329.1490783691407	313.1073303222657	401.6555480957032	264.5630493164063	268.6435241699219	394.1780395507814	268.7792663574219	317.5427551269532	287.0719604492188	54.59955215454103	325.8138122558594	289.4310302734376	52.54579162597658	112.8202362060547	391.1271972656251	36.5357894897461	162.0945739746094	243.0933685302735	1315.258422851563	336.7403869628907	236.2227783203126	1172.065795898438	320.3861694335938	70.41671752929689	1386.097045898438	425.7854919433595	-36.5624008178711	1240.113525390625	412.0809020996095	-60.56107711791994	1178.880737304688	416.2287597656251	-35.41093826293946	1187.148315429688	373.0205993652344	-91.96924591064455	991.6411132812502	325.3311767578126	-77.28878021240236	914.251647949219	331.7398986816407	-88.75583648681642	941.0288696289065	290.8880004882813	-83.83323669433595	860.583923339844	224.7882537841797	-15.95518398284912	885.8538208007815	193.5738677978516	412.5460815429689	1361.995727539063	426.0491638183595	503.1780395507814	1210.513549804688	461.6535034179689	510.781951904297	1146.97900390625	445.1961975097657	519.5190429687501	1155.861694335938	495.2432250976564	548.3785400390626	935.7763671875002	487.2747192382814	582.9205322265626	879.4501953125002	443.2632446289064	552.9231567382814	872.898132324219	482.1277160644532	572.4944458007814	788.7565917968752	455.1339416503907	507.1189270019532	770.233581542969	410.0576477050782	
